<svg class="task_delete_btn" xmlns="http://www.w3.org/2000/svg" height="40" viewBox="0 96 960 960" width="40"><path d="M265.181 942.696q-31.059 0-53.486-22.38-22.427-22.38-22.427-53.374v-548.79h-7.334q-16 0-26.938-10.972-10.938-10.972-10.938-27.022 0-16.05 10.938-26.905t26.938-10.855h165.761q0-16.166 10.939-27.101 10.938-10.935 26.938-10.935h188.856q15.98 0 27.008 11.028 11.028 11.028 11.028 27.008h165.602q16 0 26.938 10.972 10.938 10.972 10.938 27.022 0 16.05-10.938 26.905t-26.938 10.855h-7.334v548.79q0 30.994-22.427 53.374-22.427 22.38-53.486 22.38H265.181Zm0-624.544v548.79h429.638v-548.79H265.181Zm0 0v548.79-548.79ZM480 644.761l86.942 87.609q11.971 10.971 27.428 10.971 15.456 0 26.666-10.971 11.225-11.225 11.598-27.094.374-15.87-11.598-26.334l-86.942-88.275 86.942-88.276q11.225-11.225 11.598-27.094.374-15.87-11.638-26.399-10.851-11.159-26.66-11.159t-27.154 11.224L480 536.572l-86.276-87.609q-10.463-11.971-26.333-11.598-15.87.374-27.761 11.598-11.638 11.131-11.264 26.547.373 15.417 11.264 27.308l86.943 87.849-86.943 87.609q-10.971 11.17-10.971 26.567 0 15.396 11 27.498 12.134 11 27.534 11 15.401 0 26.531-10.971L480 644.761Z"/></svg>