<svg xmlns="http://www.w3.org/2000/svg" fill="#c5c5ce" height="35" viewBox="0 96 960 960" width="35"><path d="M479.883 870.986q-19.645 0-33.706-13.758-14.061-13.757-14.061-34.793V624.116H232.565q-19.595 0-33.739-14.309-14.145-14.31-14.145-34.148 0-20.63 14.145-34.304 14.144-13.674 33.739-13.674h199.551V328.13q0-20.386 14.175-34.135 14.175-13.749 33.814-13.749 19.64 0 34.043 13.749 14.403 13.749 14.403 34.135v199.551h198.884q19.878 0 34.214 13.791 14.337 13.791 14.337 34.138 0 20.347-14.337 34.427-14.336 14.079-34.214 14.079H528.551v198.319q0 21.036-14.37 34.793-14.37 13.758-34.298 13.758Z"/></svg>