<svg xmlns="http://www.w3.org/2000/svg" fill="#c5c5ce" height="24" viewBox="0 96 960 960" width="24"><path d="M271.848 957.435q-18.957-18.957-18.957-46.511 0-27.554 18.957-46.511l289.174-289.174-290.174-290.174q-18.957-19.195-19.076-45.75-.12-26.554 19.837-46.75 19.195-18.956 46.75-18.956 27.554 0 46.511 18.956l343.043 343.044q8.478 8.478 12.337 18.695 3.859 10.218 3.859 20.935 0 10.718-3.859 20.815-3.859 10.098-12.337 18.576L364.109 958.435q-19.196 19.195-45.631 19.076-26.435-.12-46.63-20.076Z"/></svg>